<?xml version="1.0" standalone="no"?>
<!DOCTYPE svg PUBLIC "-//W3C//DTD SVG 20010904//EN"
 "http://www.w3.org/TR/2001/REC-SVG-20010904/DTD/svg10.dtd">
<svg version="1.0" xmlns="http://www.w3.org/2000/svg"
 width="728.000000pt" height="728.000000pt" viewBox="0 0 728.000000 728.000000"
 preserveAspectRatio="xMidYMid meet">
<metadata>
Created by potrace 1.14, written by Peter Selinger 2001-2017
</metadata>
<g transform="translate(0.000000,728.000000) scale(0.100000,-0.100000)"
fill="#000000" stroke="none">
<path d="M3588 7250 c-27 -17 -52 -30 -58 -30 -5 0 -10 -4 -10 -10 0 -5 -4
-10 -9 -10 -8 0 -294 -162 -421 -239 -19 -11 -41 -24 -49 -28 -8 -3 -64 -35
-125 -71 -61 -36 -127 -74 -146 -84 -46 -27 -260 -150 -282 -163 -9 -5 -54
-31 -100 -58 -97 -55 -133 -76 -291 -168 -65 -38 -122 -69 -128 -69 -5 0 -9
-4 -9 -10 0 -5 -4 -10 -9 -10 -5 0 -49 -23 -98 -51 -48 -29 -108 -63 -133 -77
-25 -14 -57 -33 -72 -43 -14 -11 -28 -19 -31 -19 -3 0 -40 -20 -81 -45 -42
-25 -81 -45 -86 -45 -6 0 -10 -4 -10 -10 0 -5 -4 -10 -9 -10 -7 0 -201 -109
-258 -146 -13 -8 -24 -13 -25 -12 -2 2 -17 -7 -35 -20 -17 -12 -36 -22 -42
-22 -6 0 -11 -4 -11 -10 0 -5 -4 -10 -9 -10 -6 0 -26 -9 -45 -21 l-35 -20 14
-42 c7 -23 31 -94 53 -157 75 -214 203 -585 207 -600 4 -16 41 -120 54 -155
10 -24 31 -86 35 -100 2 -5 6 -17 9 -25 3 -8 15 -44 27 -80 11 -36 25 -74 30
-85 5 -11 35 -96 66 -190 66 -195 123 -360 125 -360 0 0 2 -7 4 -15 2 -8 18
-55 35 -105 18 -49 76 -218 130 -375 54 -157 112 -325 130 -375 17 -49 33 -94
34 -100 2 -5 6 -17 9 -25 4 -8 15 -42 26 -75 11 -33 52 -152 91 -265 40 -113
74 -214 77 -225 3 -11 9 -30 14 -42 18 -45 26 -69 38 -108 7 -22 16 -49 21
-60 11 -27 81 -232 84 -247 2 -7 6 -20 9 -28 4 -8 36 -100 72 -205 37 -104 72
-205 79 -223 l12 -33 40 31 c21 18 52 41 67 53 16 12 34 27 40 32 7 6 98 78
202 160 105 82 195 154 201 160 6 5 21 17 34 25 12 8 32 24 44 35 12 11 37 31
56 45 18 14 104 81 191 150 86 69 206 163 266 210 59 47 115 90 123 97 8 6 35
28 60 47 25 20 50 40 55 44 6 4 106 84 223 177 118 94 229 181 248 195 29 21
420 330 479 378 11 10 46 37 78 61 50 38 61 51 59 71 0 6 -11 162 -17 255 -9
132 -22 313 -30 422 -3 38 -7 111 -10 163 -3 52 -8 117 -10 145 -2 27 -7 91
-11 140 -3 50 -7 115 -10 145 -2 30 -6 91 -9 135 -3 44 -8 112 -10 150 -3 39
-7 99 -10 135 -3 62 -8 130 -20 300 -5 72 -12 175 -20 290 -2 30 -6 93 -10
140 -3 47 -7 110 -10 140 -2 30 -6 93 -10 140 -6 85 -11 161 -20 295 -2 39 -7
106 -11 150 -3 44 -7 88 -8 98 -1 17 -51 52 -126 89 -14 7 -27 15 -30 18 -3 3
-32 21 -65 39 -33 19 -103 59 -155 90 -52 30 -98 55 -102 54 -3 -1 -12 4 -18
12 -7 8 -19 15 -26 15 -8 0 -14 5 -14 10 0 6 -4 10 -9 10 -9 0 -106 53 -161
88 -14 9 -28 15 -32 14 -5 -1 -8 3 -8 8 0 6 -4 10 -10 10 -5 0 -39 18 -75 40
-36 22 -67 40 -69 40 -2 0 -34 18 -71 41 -37 22 -72 42 -78 45 -7 2 -33 -10
-59 -26z"/>
<path d="M4869 6557 c-2 -18 -1 -43 6 -147 4 -52 8 -117 10 -145 2 -27 6 -86
9 -130 9 -116 20 -284 31 -450 3 -44 7 -102 10 -130 2 -27 7 -95 10 -150 4
-55 8 -125 11 -155 2 -30 6 -91 9 -135 10 -156 17 -262 31 -440 3 -44 8 -109
10 -145 3 -62 6 -106 19 -280 3 -41 8 -106 10 -145 4 -73 11 -176 20 -285 2
-36 7 -109 11 -163 3 -54 7 -105 9 -115 2 -9 4 -21 4 -25 1 -4 34 18 73 50 40
32 79 63 88 70 33 26 246 195 260 206 8 7 29 23 46 37 17 14 43 34 58 45 16
11 33 25 40 30 6 6 79 63 161 128 83 65 159 126 170 135 11 10 79 63 150 119
115 89 247 193 340 268 17 13 86 68 155 122 69 54 136 108 149 120 l24 22 0
296 c0 163 -2 297 -4 299 -2 1 -24 14 -49 27 -25 14 -137 78 -250 144 -113 65
-218 126 -235 135 -16 10 -96 56 -177 102 -80 47 -152 88 -160 92 -7 3 -26 14
-43 25 -86 53 -226 131 -235 131 -5 0 -10 4 -10 9 0 5 -8 11 -17 14 -10 4 -36
17 -58 30 -45 27 -198 117 -260 152 -22 12 -80 45 -128 74 -49 28 -93 51 -98
51 -5 0 -9 5 -9 10 0 6 -5 10 -10 10 -6 0 -27 11 -48 23 -85 54 -132 76 -133
64z"/>
<path d="M765 5620 c-33 -21 -66 -39 -72 -39 -7 -1 -13 -5 -13 -10 0 -5 -8
-11 -17 -14 -18 -6 -94 -48 -103 -57 -3 -3 -21 -13 -40 -23 l-35 -17 2 -1803
c2 -2038 0 -1847 12 -1847 5 0 87 -46 182 -102 96 -55 203 -118 239 -138 95
-53 383 -219 400 -231 8 -5 27 -15 43 -22 15 -6 27 -15 27 -19 0 -4 5 -8 10
-8 6 0 27 -11 48 -23 20 -13 58 -36 85 -50 26 -15 117 -67 201 -117 85 -49
159 -90 166 -90 9 0 238 174 297 225 6 5 26 21 44 35 18 14 38 31 45 38 7 6
18 12 24 12 7 0 9 8 5 19 -3 11 -8 28 -10 38 -2 10 -11 35 -19 55 -9 21 -16
40 -16 43 -1 6 -7 28 -17 53 -3 9 -7 22 -9 27 -1 6 -21 64 -44 130 -23 66 -66
190 -95 275 -30 85 -88 254 -130 375 -42 121 -79 229 -82 240 -2 11 -8 29 -13
40 -8 19 -72 201 -104 295 -8 25 -47 137 -86 250 -39 113 -73 212 -75 220 -2
8 -4 16 -5 18 -2 1 -3 5 -5 10 -1 4 -4 14 -8 22 -3 8 -12 35 -20 60 -23 68
-107 313 -114 330 -4 8 -7 17 -8 20 -5 22 -69 207 -74 215 -3 6 -6 12 -6 15
-4 22 -30 97 -37 105 -4 5 -8 19 -8 31 0 13 -4 26 -10 29 -5 3 -10 15 -10 26
0 10 -4 27 -10 37 -5 9 -19 46 -30 82 -12 36 -25 74 -30 85 -4 11 -22 63 -40
115 -17 52 -34 102 -37 110 -3 8 -7 20 -9 25 -1 6 -30 89 -64 185 -51 146 -73
209 -85 250 -1 3 -5 12 -8 20 -11 27 -79 225 -82 240 -2 8 -4 16 -5 18 -2 1
-3 5 -5 10 -2 10 -15 42 -25 67 -5 11 -18 50 -30 88 -12 37 -22 67 -23 66 -1
0 -29 -18 -62 -39z"/>
<path d="M6710 4593 c-41 -31 -77 -59 -80 -63 -3 -3 -23 -19 -45 -36 -22 -16
-45 -33 -51 -39 -6 -5 -26 -21 -44 -35 -18 -14 -42 -33 -54 -42 -11 -10 -25
-21 -31 -25 -67 -52 -152 -120 -161 -128 -6 -5 -47 -37 -89 -70 -43 -33 -106
-82 -141 -110 -34 -27 -86 -68 -114 -90 -29 -22 -60 -47 -69 -55 -9 -9 -34
-29 -56 -45 -22 -17 -46 -35 -55 -42 -32 -26 -137 -109 -174 -138 -21 -16 -76
-59 -121 -95 -45 -36 -99 -78 -120 -95 -159 -125 -192 -151 -203 -162 -13 -12
-13 -18 3 -223 2 -36 7 -103 10 -150 3 -47 7 -109 10 -138 2 -29 6 -99 10
-155 3 -56 8 -124 10 -152 5 -55 13 -165 20 -295 3 -47 7 -105 10 -130 6 -58
17 -230 19 -297 0 -29 3 -53 6 -53 3 0 6 -26 6 -58 2 -73 14 -279 19 -312 2
-14 7 -79 11 -145 4 -66 8 -133 9 -150 2 -16 4 -51 4 -77 1 -27 5 -48 10 -48
5 0 48 22 96 50 48 27 91 50 96 50 5 0 9 5 9 10 0 6 4 10 9 10 5 0 56 27 113
61 57 34 122 72 145 85 24 13 64 36 89 50 26 14 106 61 178 103 73 43 138 80
146 84 8 4 31 17 50 28 133 80 225 132 226 128 1 -2 10 3 20 12 11 9 93 58
184 109 91 52 167 95 169 97 6 4 7 2833 1 2833 -3 0 -39 -26 -80 -57z"/>
<path d="M4920 3182 c0 -4 -12 -15 -27 -24 -16 -10 -40 -27 -55 -40 -35 -31
-55 -47 -108 -88 -25 -19 -46 -38 -48 -42 -2 -5 -10 -8 -17 -8 -7 0 -15 -4
-17 -8 -1 -4 -68 -59 -148 -122 -80 -63 -147 -117 -150 -120 -3 -3 -23 -19
-45 -36 -22 -16 -45 -33 -51 -39 -6 -5 -26 -21 -44 -35 -18 -14 -56 -43 -84
-66 -85 -67 -300 -238 -311 -247 -64 -49 -96 -73 -125 -97 -19 -15 -64 -51
-100 -79 -36 -28 -72 -57 -80 -64 -8 -7 -33 -26 -55 -42 -22 -16 -42 -32 -45
-35 -3 -3 -59 -48 -125 -99 -165 -130 -219 -174 -223 -183 -2 -5 -10 -8 -17
-8 -7 0 -15 -3 -17 -8 -1 -4 -88 -75 -193 -157 -104 -82 -192 -152 -195 -155
-3 -3 -31 -25 -63 -49 -32 -24 -59 -47 -62 -50 -4 -7 4 -31 125 -381 45 -129
93 -272 108 -317 l27 -82 75 -44 c41 -25 91 -54 110 -65 19 -11 91 -52 158
-91 68 -39 128 -71 133 -71 5 0 9 -4 9 -10 0 -5 4 -10 9 -10 5 0 54 -26 108
-58 54 -32 105 -61 113 -65 8 -4 33 -18 55 -32 60 -38 107 -58 114 -48 3 5 31
23 61 40 30 17 141 80 245 140 105 60 201 116 215 124 14 8 28 18 31 22 3 5 9
8 13 8 3 -1 16 5 29 12 12 7 45 27 74 44 28 17 61 34 72 38 12 3 21 11 21 16
0 5 4 9 10 9 5 0 55 27 111 60 55 33 102 60 104 60 2 0 33 18 69 40 36 22 70
40 76 40 5 0 10 5 10 10 0 6 5 10 11 10 6 0 60 29 120 65 61 36 115 65 120 65
5 0 9 4 9 9 0 5 9 11 20 14 19 5 20 10 14 84 -6 76 -7 98 -19 288 -3 50 -7
113 -9 140 -3 28 -7 91 -11 140 -3 50 -8 117 -11 150 -2 33 -6 103 -9 155 -3
52 -8 113 -10 135 -2 22 -7 90 -11 150 -4 61 -8 126 -9 145 -2 19 -6 80 -9
135 -6 94 -8 127 -21 298 -6 65 -11 147 -20 287 -2 36 -6 99 -9 140 -3 41 -5
83 -6 93 0 16 -20 26 -20 9z"/>
<path d="M2334 1140 c-21 -17 -46 -36 -54 -43 -8 -7 -58 -46 -110 -87 -110
-87 -125 -100 -112 -100 6 0 40 -18 76 -40 36 -22 70 -40 76 -40 5 0 10 -4 10
-10 0 -5 4 -10 8 -10 5 0 80 -41 166 -91 87 -50 160 -89 162 -86 5 4 -10 51
-80 252 -60 174 -97 279 -100 283 -2 1 -20 -11 -42 -28z"/>
</g>
</svg>
